<svg xmlns="http://www.w3.org/2000/svg" viewBox="0 0 51.12 45.17"><defs><style>.cls-1,.cls-2{fill:#fff;}.cls-1{fill-rule:evenodd;}</style></defs><g id="Layer_2" data-name="Layer 2"><g id="color_01" data-name="color 01"><path class="cls-1" d="M41.82,0h4.8a2.1,2.1,0,0,1,2,2.21V39.86H39.86V2.21a2.1,2.1,0,0,1,2-2.21ZM30.36,16.53h4.8a2,2,0,0,1,2,2.1V40H28.4V18.63a2,2,0,0,1,2-2.1ZM19,23.92h4.79a2,2,0,0,1,2,2V40.13H17.07V25.94a2,2,0,0,1,2-2ZM7.56,29.28h4.8a2,2,0,0,1,2,2v8.82H5.6V31.31a2,2,0,0,1,2-2Z"/><path class="cls-2" d="M50,42.54H2.61V5.8A1.21,1.21,0,0,0,1.34,4.66H1.27A1.21,1.21,0,0,0,0,5.8V44a1.22,1.22,0,0,0,1.27,1.14h.07l.21,0H50a1.23,1.23,0,0,0,1.17-1.27V43.8A1.22,1.22,0,0,0,50,42.54Z"/><path class="cls-2" d="M31.34.08H23.27a1,1,0,0,0-.78.62.63.63,0,0,0,.11.71L24.39,3.2l1.55,1.56L19.2,11.5a1.27,1.27,0,0,0,0,1.79l.07.07a1.27,1.27,0,0,0,1.79,0l6.75-6.75,1.28,1.3L31,9.78a.7.7,0,0,0,.8.18.94.94,0,0,0,.58-.8l0-8A1,1,0,0,0,31.34.08Z"/></g></g></svg>