<svg xmlns="http://www.w3.org/2000/svg" viewBox="0 0 195.95 221.87"><defs><style>.cls-1{fill:none;}</style></defs><g id="Layer_2" data-name="Layer 2"><g id="Layer_1-2" data-name="Layer 1"><path class="cls-1" d="M9,62.76a22.74,22.74,0,1,0,26.64-18A22.74,22.74,0,0,0,9,62.76Z"/><path class="cls-1" d="M.56,123.21A5.4,5.4,0,0,0,3,130.43l2.52,1.25a5.41,5.41,0,0,0,7.22-2.4L72.86,9a5.41,5.41,0,0,0-2.4-7.22L67.94.56A5.41,5.41,0,0,0,60.72,3Z"/><path class="cls-1" d="M118.59,137.17a6.48,6.48,0,0,0,2.88,8.67l34.71,17.36a6.48,6.48,0,0,0,8.67-2.89l23.51-47a6.48,6.48,0,0,0-2.88-8.67l-34.7-17.36a6.48,6.48,0,0,0-8.67,2.88Z"/><path class="cls-1" d="M187.77,114.49a23.19,23.19,0,0,1,5.77,27.94L190.76,148A23.18,23.18,0,0,1,165,160.11Z"/><path class="cls-1" d="M142.11,90.17l-23.87,47.71c-47.71-19.45-90-14-104.22-11.22L71.5,11.76C77.82,25.49,98.52,63.71,142.11,90.17Z"/><path class="cls-1" d="M158,164.11a3.77,3.77,0,0,1-.38.57L150,172.31a3.23,3.23,0,0,1-4.51,0l-20.88,43.4-.78,1.56-1.4,2.79a3.24,3.24,0,0,1-4.33,1.45l-19.93-10a3.25,3.25,0,0,1-1.44-4.33l2.18-4.36a3.29,3.29,0,0,1,4.33-1.44s7.12-11.36,9.75-16.62c3.31-6.63,12.11-24.21,15-30l-5-5a3.24,3.24,0,0,1-.67-3.56Z"/></g></g></svg>