<svg xmlns="http://www.w3.org/2000/svg" width="38" height="49.001" viewBox="0 0 38 49.001">
  <g id="Vector_Smart_Object" data-name="Vector Smart Object" transform="translate(-1484 -15.999)">
    <g id="Vector_Smart_Object-2" data-name="Vector Smart Object" transform="translate(933.12 -196.595)">
      <g id="Group_9" data-name="Group 9">
        <path id="Path_8" data-name="Path 8" d="M586.238,247.384c-.465-.255-.682-.435-.682-.563,0-.035,0-.071-.005-.107l-1.291-12.423c-.019-7.336-4.021-13.134-10.127-14.928a4.714,4.714,0,1,0-8.5,0c-6.106,1.793-10.108,7.592-10.128,14.928l-1.291,12.456c0,.036-.006.071-.006.107,0,.1-.321.336-.533.494l-.168.125a6.125,6.125,0,0,0-2.624,4.766,3.746,3.746,0,0,0,3.739,3.745h8.717a6.622,6.622,0,0,0,13.088,0h8.717a3.76,3.76,0,0,0,3.739-3.8A5.514,5.514,0,0,0,586.238,247.384Zm-16.354,12.149a4.583,4.583,0,0,1-4.456-3.55h8.906A4.579,4.579,0,0,1,569.884,259.533Zm15.258-5.612H554.619a1.7,1.7,0,0,1-1.681-1.743,4.106,4.106,0,0,1,1.81-3.063L554.9,249a5.308,5.308,0,0,0,.744-.642h11.089a1.031,1.031,0,0,0,0-2.062H556.326l1.228-11.847c0-.035.005-.071.005-.107,0-6.93,4.01-12.28,9.978-13.312a1.031,1.031,0,0,0,.524-1.772,2.656,2.656,0,1,1,3.637,0,1.032,1.032,0,0,0,.525,1.772c5.968,1.032,9.978,6.382,9.978,13.312a.991.991,0,0,0,.006.107l1.291,12.431a2.846,2.846,0,0,0,1.762,2.316,3.566,3.566,0,0,1,1.563,3.041A1.684,1.684,0,0,1,585.141,253.921Z" fill="#333"/>
        <path id="Path_9" data-name="Path 9" d="M573.107,246.3H570.3a1.031,1.031,0,0,0,0,2.062h2.809a1.031,1.031,0,0,0,0-2.062Z" fill="#333"/>
      </g>
    </g>
    <path id="Color_Overlay" data-name="Color Overlay" d="M1496.456,59.387h-8.718A3.746,3.746,0,0,1,1484,55.643a6.129,6.129,0,0,1,2.624-4.765l.167-.125c.212-.158.533-.4.533-.494,0-.035,0-.071.005-.106l1.292-12.456c.02-7.336,4.021-13.135,10.128-14.928a4.714,4.714,0,1,1,8.5,0c6.106,1.794,10.108,7.592,10.127,14.928l1.292,12.423a1.062,1.062,0,0,1,.005.107c0,.129.217.308.682.563A5.513,5.513,0,0,1,1522,55.583a3.759,3.759,0,0,1-3.739,3.8h-8.717a6.622,6.622,0,0,1-13.089,0Zm6.547,3.55a4.58,4.58,0,0,0,4.451-3.55h-8.906A4.582,4.582,0,0,0,1503,62.938ZM1488.02,52.406l-.153.114a4.1,4.1,0,0,0-1.809,3.063,1.7,1.7,0,0,0,1.679,1.742h30.524a1.684,1.684,0,0,0,1.681-1.683,3.566,3.566,0,0,0-1.562-3.04,2.845,2.845,0,0,1-1.762-2.316l-1.292-12.431c0-.035-.006-.071-.006-.106,0-6.931-4.01-12.28-9.978-13.312a1.033,1.033,0,0,1-.524-1.772,2.655,2.655,0,1,0-3.638,0,1.03,1.03,0,0,1-.523,1.772c-5.969,1.031-9.978,6.381-9.978,13.312,0,.035,0,.071-.005.106L1489.445,49.7h10.408a1.031,1.031,0,0,1,0,2.062h-11.09A5.319,5.319,0,0,1,1488.02,52.406Zm15.4-.642a1.031,1.031,0,0,1,0-2.062h2.809a1.031,1.031,0,0,1,0,2.062Z" fill="#fbf8f8"/>
  </g>
</svg>
