<svg xmlns="http://www.w3.org/2000/svg" width="22.52" height="32" viewBox="0 0 22.52 32">
  <g id="Group_25" data-name="Group 25" transform="translate(-77.56 -672.668)">
    <g id="Group_21" data-name="Group 21">
      <path id="Path_20" data-name="Path 20" d="M95.316,686.384a.685.685,0,0,1-.675-.69v-8.479c0-1.726-2.661-3.186-5.818-3.186s-5.818,1.46-5.818,3.186v8.479a.679.679,0,1,1-1.357,0v-8.479c0-2.549,3.148-4.548,7.174-4.548s7.168,2,7.168,4.548v8.479A.681.681,0,0,1,95.316,686.384Z" fill="#fff"/>
    </g>
    <g id="Group_22" data-name="Group 22">
      <path id="Path_21" data-name="Path 21" d="M88.823,704.668A11.325,11.325,0,0,1,77.56,693.309v-6.247a2.033,2.033,0,0,1,2.027-2.038H98.058a2.032,2.032,0,0,1,2.021,2.038v6.247A11.322,11.322,0,0,1,88.823,704.668Zm-9.235-18.284a.673.673,0,0,0-.681.678v6.247a9.914,9.914,0,1,0,19.827,0v-6.247a.67.67,0,0,0-.675-.678Z" fill="#fff"/>
    </g>
    <g id="Group_23" data-name="Group 23">
      <path id="Path_22" data-name="Path 22" d="M87.407,694.862a1.484,1.484,0,0,1,.4-1.035,1.321,1.321,0,0,1,1-.418,1.4,1.4,0,0,1,1.017.418,1.434,1.434,0,0,1,.418,1.035,1.331,1.331,0,0,1-.418,1,1.447,1.447,0,0,1-1.017.411,1.383,1.383,0,0,1-1.4-1.414Z" fill="#fff"/>
    </g>
    <g id="Group_24" data-name="Group 24">
      <path id="Path_23" data-name="Path 23" d="M88.823,698.3a.673.673,0,0,1-.672-.677v-2.788a.675.675,0,0,1,1.35,0v2.788A.677.677,0,0,1,88.823,698.3Z" fill="#fff"/>
    </g>
  </g>
</svg>
