<svg xmlns="http://www.w3.org/2000/svg" width="24.596" height="32" viewBox="0 0 24.596 32">
  <g id="Group_1" data-name="Group 1" transform="translate(-76.434 -565.825)">
    <path id="Path_3" data-name="Path 3" d="M90.073,597.825h-2.68c-9.1,0-9.91-4.178-9.936-4.357-1.231-3.755-1.638-8.886.43-11.054a18.964,18.964,0,0,1,4.322-2.592,16.987,16.987,0,0,0,2.05-1.111,1.615,1.615,0,0,0,.553-1.2,10.394,10.394,0,0,1-1.793-2.6,7.194,7.194,0,0,1-.46-3.28l.016-.727a3.772,3.772,0,0,1,1.188-3.154,7.381,7.381,0,0,1,9.94,0,3.747,3.747,0,0,1,1.19,3.154l.017.727a7.19,7.19,0,0,1-.457,3.28,10.776,10.776,0,0,1-1.849,2.664,2.08,2.08,0,0,0,.605,1.137,18.556,18.556,0,0,0,2.046,1.111,19.008,19.008,0,0,1,4.325,2.592c2.073,2.168,1.661,7.306.412,11.16C99.984,593.648,99.178,597.825,90.073,597.825ZM88.735,567.32a5.508,5.508,0,0,0-3.894,1.461,2.37,2.37,0,0,0-.786,2.135l-.007.76a5.582,5.582,0,0,0,.345,2.671,9.752,9.752,0,0,0,1.458,2.116,1.448,1.448,0,0,1,.454,1.124,3.239,3.239,0,0,1-1.056,2.241,13.6,13.6,0,0,1-2.378,1.329,20.154,20.154,0,0,0-3.911,2.288c-1.549,1.633-1.191,6.2-.066,9.673.026.119.786,3.213,8.5,3.213h2.68c7.72,0,8.476-3.094,8.487-3.12,1.144-3.564,1.5-8.133-.056-9.766a19.977,19.977,0,0,0-3.911-2.288,13.489,13.489,0,0,1-2.374-1.329,3.247,3.247,0,0,1-1.053-2.241,1.463,1.463,0,0,1,.451-1.131,9.586,9.586,0,0,0,1.46-2.109,5.658,5.658,0,0,0,.349-2.671l-.013-.76a2.352,2.352,0,0,0-.786-2.135A5.5,5.5,0,0,0,88.735,567.32Z" fill="#fff"/>
  </g>
</svg>
